<svg width="142" height="34" viewBox="0 0 142 34" fill="none" xmlns="http://www.w3.org/2000/svg">
<g clip-path="url(#clip0_2496_1190)">
<path d="M59.2781 17.3506L55.2077 15.4909C54.0225 14.9489 53.4197 14.1901 53.4197 13.2349C53.4197 11.8528 54.4018 11.2871 56.8095 11.2871C58.2724 11.2871 59.6371 11.4971 60.8663 11.9036C61.1914 12.0018 61.4047 12.0086 61.5199 11.9239C61.635 11.8392 61.6926 11.6258 61.6926 11.2769V10.989C61.6926 10.3386 61.5707 10.1929 60.8358 9.94562C59.6811 9.53912 58.3841 9.34265 56.8772 9.34265C53.0574 9.34265 51.354 10.5418 51.354 13.2315C51.354 15.4536 52.3293 16.3344 54.2494 17.2659L58.1606 19.1257C59.5998 19.8167 60.3313 20.3824 60.3313 21.5714C60.3313 23.2211 58.9361 23.5531 56.6842 23.5531C55.0824 23.5531 53.4841 23.3363 51.9297 22.9061C51.7807 22.8756 51.652 22.8586 51.5504 22.8586C51.4184 22.8586 51.3236 22.8857 51.2626 22.9366C51.1475 23.028 51.0967 23.238 51.0967 23.5937V23.8512C51.0967 24.4033 51.2254 24.6709 52.011 24.8911C53.4604 25.2908 54.9673 25.4941 56.4911 25.4941C60.5785 25.4941 62.4003 24.2644 62.4003 21.507C62.4003 19.2341 61.3472 18.3228 59.2781 17.3506Z" fill="#29235C"/>
<path d="M70.9544 9.34607C66.5047 9.34607 64.3408 11.5107 64.3408 15.9618V18.9461C64.3408 23.5396 66.5115 25.4975 71.5944 25.4975C73.1555 25.4975 74.6184 25.2943 75.9425 24.8945C76.7484 24.654 76.8297 24.488 76.8297 23.8851V23.5971C76.8297 23.2211 76.7687 22.9942 76.6468 22.8993C76.5317 22.8112 76.3184 22.8146 76 22.9061C74.4999 23.3194 73.0607 23.5226 71.5978 23.5226C67.9371 23.5226 66.4437 22.2964 66.4437 19.2984V18.184H76.2777C77.0532 18.184 77.192 18.062 77.2801 17.3236V17.3168C77.3444 16.9137 77.3749 16.3378 77.3749 15.6095C77.3749 11.5107 75.1568 9.34607 70.9544 9.34607ZM75.404 16.4665H66.4437V15.2572C66.4437 12.5608 67.9507 11.1922 70.9239 11.1922C73.8971 11.1922 75.404 12.5608 75.404 15.2572V16.4665Z" fill="#29235C"/>
<path d="M85.9319 9.34607C81.4822 9.34607 79.3184 11.5107 79.3184 15.9618V18.9461C79.3184 23.5396 81.489 25.4975 86.5719 25.4975C88.133 25.4975 89.5959 25.2943 90.92 24.8945C91.726 24.654 91.8072 24.488 91.8072 23.8851V23.5971C91.8072 23.2211 91.7463 22.9942 91.6244 22.8993C91.5059 22.8112 91.2959 22.8146 90.9742 22.9061C89.4774 23.3194 88.0382 23.5226 86.5719 23.5226C82.9113 23.5226 81.4179 22.2964 81.4179 19.2984V18.184H91.2519C92.0274 18.184 92.1662 18.062 92.2542 17.3236V17.3202C92.3186 16.9137 92.3491 16.3412 92.3491 15.6095C92.3524 11.5107 90.1344 9.34607 85.9319 9.34607ZM90.3816 16.4665H81.4213V15.2572C81.4213 12.5608 82.9282 11.1922 85.9014 11.1922C88.8747 11.1922 90.3816 12.5608 90.3816 15.2572V16.4665Z" fill="#29235C"/>
<path d="M112.143 10.3792V10.701C112.143 11.0669 112.098 11.2668 112 11.3481C111.902 11.4327 111.699 11.4463 111.313 11.3819L111.157 11.3684C110.839 11.3413 110.561 11.3176 110.307 11.3176C108.015 11.3176 107.077 12.3474 107.077 14.8676V24.2983C107.077 25.0808 106.985 25.1723 106.203 25.1723H105.851C105.143 25.1723 104.977 25.091 104.977 24.2983V14.7423C104.977 11.1109 106.721 9.34606 110.307 9.34606C110.697 9.34606 111.052 9.37993 111.316 9.41042C112.021 9.49172 112.143 9.63738 112.143 10.3792ZM126.02 9.66448H125.668C124.95 9.66448 124.794 9.8203 124.794 10.5384V19.6473C124.794 22.4318 123.555 23.5192 120.378 23.5192C117.219 23.5192 115.928 22.398 115.928 19.6473V10.5418C115.928 9.83385 115.847 9.66787 115.055 9.66787H114.703C113.985 9.66787 113.829 9.82369 113.829 10.5418V19.6507C113.829 23.5836 115.972 25.4975 120.378 25.4975C124.824 25.4975 126.897 23.6412 126.897 19.6507V10.5418C126.897 9.83047 126.816 9.66448 126.02 9.66448ZM142 15.6095C142 16.3378 141.97 16.9137 141.905 17.3202V17.3235C141.817 18.062 141.675 18.184 140.903 18.184H131.069V19.2984C131.069 22.2997 132.562 23.5226 136.223 23.5226C137.689 23.5226 139.128 23.3227 140.625 22.9061C140.947 22.8146 141.157 22.8112 141.275 22.8993C141.401 22.9908 141.458 23.2177 141.458 23.5971V23.8851C141.458 24.4914 141.377 24.6574 140.571 24.8945C139.247 25.2943 137.784 25.4975 136.223 25.4975C131.137 25.4975 128.969 23.5395 128.969 18.9461V15.9618C128.969 11.5106 131.133 9.34606 135.583 9.34606C139.782 9.34606 142 11.5107 142 15.6095ZM140.029 15.2572C140.029 12.5608 138.522 11.1922 135.549 11.1922C132.576 11.1922 131.069 12.5608 131.069 15.2572V16.4665H140.029V15.2572ZM98.9222 9.27831H98.6005C97.8216 9.27831 97.6625 9.43752 97.6625 10.2166V24.234C97.6625 25.0165 97.8216 25.1723 98.6005 25.1723H98.9222C99.701 25.1723 99.8602 25.0131 99.8602 24.234V10.2166C99.8602 9.43752 99.701 9.27831 98.9222 9.27831ZM90.9067 7.04597H106.616C107.334 7.04597 107.459 6.92063 107.459 6.20249V5.85019C107.459 5.13205 107.334 5.00671 106.616 5.00671H90.9067C90.1888 5.00671 90.0635 5.13205 90.0635 5.85019V6.20249C90.0635 6.92063 90.1922 7.04597 90.9067 7.04597Z" fill="url(#paint0_linear_2496_1190)"/>
<path d="M36.9756 15.4265C36.8808 15.4265 36.786 15.4367 36.6979 15.4536L29.3428 2.51689C29.5798 2.24928 29.7288 1.90037 29.7288 1.5142C29.7288 0.677493 29.0515 0 28.2151 0C27.5548 0 26.9994 0.426821 26.7928 1.01624H11.9403C11.7337 0.426821 11.1784 0 10.518 0C9.68159 0 9.00432 0.677493 9.00432 1.5142C9.00432 1.88682 9.14316 2.22218 9.36666 2.4864L1.80493 15.5722C1.71011 15.5552 1.61529 15.5417 1.5137 15.5417C0.677271 15.5451 0 16.2226 0 17.0593C0 17.896 0.677271 18.5735 1.5137 18.5735C1.60513 18.5735 1.69656 18.5633 1.78461 18.5464L9.38359 31.4865C9.14654 31.7541 9.00093 32.0996 9.00093 32.4858C9.00093 33.3225 9.6782 34 10.5146 34C11.1817 34 11.7405 33.5664 11.9437 32.9668L26.9791 32.8923C27.1924 33.4682 27.7444 33.8814 28.3946 33.8814C29.231 33.8814 29.9083 33.2039 29.9083 32.3672C29.9083 31.9878 29.7627 31.6423 29.5324 31.3781L36.7284 18.4346C36.8097 18.4481 36.8909 18.4583 36.9722 18.4583C37.8086 18.4583 38.4859 17.7808 38.4859 16.9441C38.4893 16.104 37.812 15.4265 36.9756 15.4265ZM35.4619 16.9102L31.5134 18.2178C31.3068 17.9434 31.0088 17.7435 30.6634 17.6589L29.0278 4.01076L35.8242 15.9617C35.6075 16.2226 35.4687 16.5512 35.4619 16.9102ZM28.0932 30.8801C27.6801 30.9614 27.3313 31.2155 27.1145 31.5576L14.6528 28.7325C14.646 28.6783 14.646 28.6207 14.6358 28.5699L29.3191 20.2638C29.4105 20.3451 29.5121 20.4129 29.6238 20.4705L28.0932 30.8801ZM2.98676 16.7171L12.306 10.701C12.4279 10.7925 12.56 10.867 12.7056 10.9178L12.6446 27.4622C12.5972 27.4791 12.5532 27.4961 12.5092 27.5164L2.87163 17.7198C2.96983 17.52 3.03079 17.2964 3.03079 17.0593C3.0274 16.9407 3.01047 16.8255 2.98676 16.7171ZM27.1992 2.63206C27.3922 2.80821 27.6259 2.93693 27.89 2.99452L29.6611 17.7706C29.5426 17.8282 29.4342 17.8994 29.336 17.9841L14.7002 9.76607C14.7171 9.67799 14.7273 9.58992 14.7273 9.49846C14.7273 9.42393 14.7171 9.35279 14.7069 9.28166L27.1992 2.63206ZM14.1042 27.7095C13.9721 27.6011 13.8231 27.5164 13.6572 27.4588L13.7181 10.9178C13.8976 10.8534 14.0568 10.7586 14.199 10.64L28.828 18.8513C28.8111 18.9427 28.8009 19.0342 28.8009 19.129C28.8009 19.2171 28.8111 19.3018 28.828 19.3831L14.1042 27.7095ZM14.2362 8.38398C13.9653 8.13669 13.6098 7.98087 13.2136 7.98087C13.1797 7.98087 13.1458 7.98765 13.112 7.99103L11.3274 2.79127C11.6084 2.61174 11.8218 2.34413 11.9369 2.0257H26.1833L14.2362 8.38398ZM10.5146 3.02839C10.5451 3.02839 10.5722 3.02162 10.6027 3.01823L12.3907 8.22477C11.9741 8.49577 11.6999 8.95985 11.6999 9.49507C11.6999 9.62041 11.7202 9.73897 11.7473 9.85414L3.02063 15.4909L10.2336 3.0013C10.325 3.01823 10.4198 3.02839 10.5146 3.02839ZM11.7913 28.2311C11.6965 28.4276 11.6389 28.6478 11.6389 28.8815C11.6389 29.244 11.771 29.5726 11.9843 29.8334L11.0768 31.08C10.9041 31.0089 10.7144 30.9682 10.5146 30.9682C10.43 30.9682 10.3487 30.9784 10.2674 30.9919L3.98235 20.2943L11.7913 28.2311ZM11.6829 31.5339L12.5939 30.2873C12.7666 30.3551 12.9562 30.3957 13.1526 30.3957C13.6809 30.3957 14.1448 30.1247 14.4157 29.7149L24.0194 31.8896L11.9267 31.9506C11.8692 31.7981 11.7879 31.6593 11.6829 31.5339ZM30.6262 20.6127C31.2933 20.4705 31.7945 19.8912 31.8216 19.1866L35.7904 17.8723C35.8107 17.896 35.8276 17.9197 35.8479 17.9434L29.2852 29.7386L30.6262 20.6127Z" fill="url(#paint1_linear_2496_1190)"/>
</g>
<defs>
<linearGradient id="paint0_linear_2496_1190" x1="90.0651" y1="15.2528" x2="142.001" y2="15.2528" gradientUnits="userSpaceOnUse">
<stop stop-color="#29235C"/>
<stop offset="1" stop-color="#00ABD0"/>
</linearGradient>
<linearGradient id="paint1_linear_2496_1190" x1="0" y1="16.9993" x2="38.4887" y2="16.9993" gradientUnits="userSpaceOnUse">
<stop stop-color="#29235C"/>
<stop offset="1" stop-color="#00ABD0"/>
</linearGradient>
<clipPath id="clip0_2496_1190">
<rect width="142" height="34" fill="white"/>
</clipPath>
</defs>
</svg>